<svg width="25" height="27" viewBox="0 0 25 27" fill="none" xmlns="http://www.w3.org/2000/svg">
<g clip-path="url(#clip0_4_450)">
<path d="M20.0736 14.1714C20.0617 11.9741 21.0555 10.3157 23.0672 9.09434C21.9416 7.48382 20.2413 6.59774 17.9961 6.42411C15.8707 6.25647 13.5477 7.66343 12.6976 7.66343C11.7995 7.66343 9.73997 6.48398 8.12346 6.48398C4.78269 6.53787 1.23236 9.14822 1.23236 14.4587C1.23236 16.0273 1.51974 17.6478 2.0945 19.3202C2.86084 21.5175 5.62686 26.9058 8.51262 26.816C10.0214 26.7801 11.0871 25.7443 13.0508 25.7443C14.9547 25.7443 15.9426 26.816 17.6249 26.816C20.5346 26.7741 23.0372 21.8767 23.7676 19.6735C19.8641 17.8354 20.0736 14.2851 20.0736 14.1714ZM16.685 4.34062C18.3194 2.40081 18.1697 0.634628 18.1218 0C16.679 0.0838188 15.0086 0.981877 14.0566 2.08948C13.0089 3.27492 12.3922 4.74175 12.5239 6.39418C14.0866 6.51392 15.5115 5.71165 16.685 4.34062Z" fill="black"/>
</g>
<defs>
<clipPath id="clip0_4_450">
<rect width="24" height="26.9058" fill="white" transform="translate(0.5)"/>
</clipPath>
</defs>
</svg>
