<svg width="17" height="16" viewBox="0 0 17 16" fill="none" xmlns="http://www.w3.org/2000/svg">
<path d="M11.4961 3.69189C11.6322 3.69189 11.8641 3.71354 12.1919 3.75684C12.5197 3.80013 12.8784 3.92383 13.2681 4.12793C13.6639 4.32585 14.0226 4.65674 14.3442 5.12061C14.3257 5.13916 14.236 5.20719 14.0752 5.32471C13.9144 5.43604 13.735 5.60303 13.5371 5.82568C13.3392 6.04215 13.166 6.32048 13.0176 6.66064C12.8691 6.99463 12.7949 7.39355 12.7949 7.85742C12.7949 8.38932 12.8877 8.84082 13.0732 9.21191C13.265 9.58301 13.4845 9.88298 13.7319 10.1118C13.9855 10.3345 14.2082 10.4984 14.3999 10.6035C14.5978 10.7087 14.703 10.7643 14.7153 10.7705C14.7091 10.7952 14.6287 11.0148 14.4741 11.4292C14.3257 11.8436 14.0783 12.3044 13.7319 12.8115C13.4289 13.2507 13.1011 13.6558 12.7485 14.0269C12.4022 14.3979 11.9847 14.5835 11.4961 14.5835C11.1683 14.5835 10.8993 14.5371 10.689 14.4443C10.4787 14.3454 10.2622 14.2495 10.0396 14.1567C9.81689 14.0578 9.51693 14.0083 9.13965 14.0083C8.77474 14.0083 8.46859 14.0578 8.22119 14.1567C7.97998 14.2557 7.74805 14.3547 7.52539 14.4536C7.30892 14.5526 7.05225 14.6021 6.75537 14.6021C6.30387 14.6021 5.90804 14.4227 5.56787 14.064C5.2277 13.7052 4.87826 13.2754 4.51953 12.7744C4.10514 12.1807 3.74951 11.457 3.45264 10.6035C3.16195 9.74382 3.0166 8.87793 3.0166 8.00586C3.0166 7.07194 3.19287 6.28955 3.54541 5.65869C3.89795 5.02165 4.34945 4.54232 4.8999 4.2207C5.45654 3.8929 6.03174 3.729 6.62549 3.729C6.94092 3.729 7.23779 3.78158 7.51611 3.88672C7.79443 3.98568 8.0542 4.08773 8.29541 4.19287C8.54281 4.29801 8.76546 4.35059 8.96338 4.35059C9.15511 4.35059 9.37777 4.29492 9.63135 4.18359C9.88493 4.07227 10.1694 3.96403 10.4849 3.85889C10.8003 3.74756 11.1374 3.69189 11.4961 3.69189ZM10.9858 2.51367C10.7446 2.80436 10.4416 3.04867 10.0767 3.24658C9.71175 3.43831 9.3654 3.53418 9.0376 3.53418C8.96956 3.53418 8.90462 3.52799 8.84277 3.51562C8.83659 3.49707 8.8304 3.46305 8.82422 3.41357C8.81803 3.3641 8.81494 3.31152 8.81494 3.25586C8.81494 2.88477 8.89535 2.52604 9.05615 2.17969C9.21696 1.82715 9.39941 1.53646 9.60352 1.30762C9.86328 0.998372 10.1911 0.741699 10.5869 0.537598C10.9827 0.333496 11.36 0.22526 11.7188 0.212891C11.7373 0.293294 11.7466 0.38916 11.7466 0.500488C11.7466 0.871582 11.6755 1.2334 11.5332 1.58594C11.391 1.93229 11.2085 2.24154 10.9858 2.51367Z" fill="white"/>
</svg>
