<svg width="17" height="16" viewBox="0 0 17 16" fill="none" xmlns="http://www.w3.org/2000/svg">
<path d="M7.16797 5.33398H9.16797" stroke="white" stroke-linecap="round" stroke-linejoin="round"/>
<path d="M8.16667 11.9993C9.36 11.9993 10.3333 11.026 10.3333 9.83268C10.3333 8.63935 9.36 7.66602 8.16667 7.66602C6.97333 7.66602 6 8.63935 6 9.83268C6 11.026 6.97333 11.9993 8.16667 11.9993Z" stroke="white" stroke-linecap="round" stroke-linejoin="round"/>
<path d="M11.1654 3.33398L10.7188 2.44065C10.4121 1.83398 9.61214 1.33398 8.93214 1.33398H7.40548C6.71881 1.33398 5.91881 1.83398 5.61214 2.44065L5.13214 3.40732C4.94548 3.76732 4.57214 4.00065 4.16548 4.00065C2.71881 4.00065 1.57214 5.22065 1.66548 6.66065L2.01214 12.1673C2.09214 13.5407 2.83214 14.6673 4.67214 14.6673H11.6588C13.4988 14.6673 14.2321 13.5407 14.3188 12.1673L14.4987 7.66732" stroke="white" stroke-linecap="round" stroke-linejoin="round"/>
<path d="M13.5913 3.39246L11.1713 5.81246C11.078 5.90579 10.9846 6.08579 10.9713 6.21912L10.838 7.14579C10.7913 7.47912 11.0246 7.71246 11.358 7.66579L12.2846 7.53246C12.4113 7.51246 12.598 7.42579 12.6913 7.33246L15.1113 4.91246C15.5313 4.49246 15.7246 4.01246 15.1113 3.39912C14.4913 2.77246 14.0113 2.97246 13.5913 3.39246Z" stroke="white" stroke-miterlimit="10" stroke-linecap="round" stroke-linejoin="round"/>
<path d="M13.2461 3.74023C13.4528 4.47357 14.0261 5.0469 14.7594 5.25357" stroke="white" stroke-miterlimit="10" stroke-linecap="round" stroke-linejoin="round"/>
</svg>
