<svg width="31" height="27" viewBox="0 0 31 27" fill="none" xmlns="http://www.w3.org/2000/svg">
<path d="M26.875 4.5H21.625V2.25C21.625 1.65326 21.3879 1.08097 20.966 0.65901C20.544 0.237053 19.9717 0 19.375 0H11.875C11.2783 0 10.706 0.237053 10.284 0.65901C9.86205 1.08097 9.625 1.65326 9.625 2.25V4.5H4.375C3.38044 4.5 2.42661 4.89509 1.72335 5.59835C1.02009 6.30161 0.625 7.25544 0.625 8.25V23.25C0.625 24.2446 1.02009 25.1984 1.72335 25.9017C2.42661 26.6049 3.38044 27 4.375 27H26.875C27.8696 27 28.8234 26.6049 29.5267 25.9017C30.2299 25.1984 30.625 24.2446 30.625 23.25V8.25C30.625 7.25544 30.2299 6.30161 29.5267 5.59835C28.8234 4.89509 27.8696 4.5 26.875 4.5ZM11.125 2.25C11.125 2.05109 11.204 1.86032 11.3447 1.71967C11.4853 1.57902 11.6761 1.5 11.875 1.5H19.375C19.5739 1.5 19.7647 1.57902 19.9053 1.71967C20.046 1.86032 20.125 2.05109 20.125 2.25V4.5H11.125V2.25ZM29.125 23.25C29.125 23.8467 28.8879 24.419 28.466 24.841C28.044 25.2629 27.4717 25.5 26.875 25.5H4.375C3.77826 25.5 3.20597 25.2629 2.78401 24.841C2.36205 24.419 2.125 23.8467 2.125 23.25V14.25C2.7715 14.7418 3.56272 15.0055 4.375 15H12.625V15.75C12.625 16.3467 12.8621 16.919 13.284 17.341C13.706 17.7629 14.2783 18 14.875 18H16.375C16.9717 18 17.544 17.7629 17.966 17.341C18.3879 16.919 18.625 16.3467 18.625 15.75V15H26.875C27.689 15.0012 28.4804 14.7322 29.125 14.235V23.25ZM14.125 15.75V14.25C14.125 14.0511 14.204 13.8603 14.3447 13.7197C14.4853 13.579 14.6761 13.5 14.875 13.5H16.375C16.5739 13.5 16.7647 13.579 16.9053 13.7197C17.046 13.8603 17.125 14.0511 17.125 14.25V15.75C17.125 15.9489 17.046 16.1397 16.9053 16.2803C16.7647 16.421 16.5739 16.5 16.375 16.5H14.875C14.6761 16.5 14.4853 16.421 14.3447 16.2803C14.204 16.1397 14.125 15.9489 14.125 15.75ZM29.125 11.25C29.125 11.8467 28.8879 12.419 28.466 12.841C28.044 13.2629 27.4717 13.5 26.875 13.5H18.49C18.3353 13.0623 18.0489 12.6832 17.6703 12.4147C17.2916 12.1462 16.8392 12.0013 16.375 12H14.875C14.4108 12.0013 13.9584 12.1462 13.5797 12.4147C13.2011 12.6832 12.9147 13.0623 12.76 13.5H4.375C3.77826 13.5 3.20597 13.2629 2.78401 12.841C2.36205 12.419 2.125 11.8467 2.125 11.25V8.25C2.125 7.65326 2.36205 7.08097 2.78401 6.65901C3.20597 6.23705 3.77826 6 4.375 6H26.875C27.4717 6 28.044 6.23705 28.466 6.65901C28.8879 7.08097 29.125 7.65326 29.125 8.25V11.25ZM4.525 9C4.32609 9 4.13532 9.07902 3.99467 9.21967C3.85402 9.36032 3.775 9.55109 3.775 9.75C3.775 9.94891 3.85402 10.1397 3.99467 10.2803C4.13532 10.421 4.32609 10.5 4.525 10.5C4.72391 10.5 4.91468 10.421 5.05533 10.2803C5.19598 10.1397 5.275 9.94891 5.275 9.75C5.275 9.55109 5.19598 9.36032 5.05533 9.21967C4.91468 9.07902 4.72391 9 4.525 9ZM27.025 9C26.8261 9 26.6353 9.07902 26.4947 9.21967C26.354 9.36032 26.275 9.55109 26.275 9.75C26.275 9.94891 26.354 10.1397 26.4947 10.2803C26.6353 10.421 26.8261 10.5 27.025 10.5C27.2239 10.5 27.4147 10.421 27.5553 10.2803C27.696 10.1397 27.775 9.94891 27.775 9.75C27.775 9.55109 27.696 9.36032 27.5553 9.21967C27.4147 9.07902 27.2239 9 27.025 9Z" fill="#6500E0"/>
</svg>
