<svg width="24" height="32" viewBox="0 0 24 32" fill="none" xmlns="http://www.w3.org/2000/svg">
<path d="M16 16.9V21.1C16 24.6 14.6 26 11.1 26H6.9C3.4 26 2 24.6 2 21.1V16.9C2 13.4 3.4 12 6.9 12H11.1C14.6 12 16 13.4 16 16.9Z" stroke="#6500E0" stroke-width="1.5" stroke-linecap="round" stroke-linejoin="round"/>
<path d="M22 10.9V15.1C22 18.6 20.6 20 17.1 20H16V16.9C16 13.4 14.6 12 11.1 12H8V10.9C8 7.4 9.4 6 12.9 6H17.1C20.6 6 22 7.4 22 10.9Z" stroke="#6500E0" stroke-width="1.5" stroke-linecap="round" stroke-linejoin="round"/>
</svg>
