<svg width="37" height="37" viewBox="0 0 37 37" fill="none" xmlns="http://www.w3.org/2000/svg">
<g clip-path="url(#clip0_1657_433279)">
<path d="M35.9037 14.8236L26.6037 5.52361C26.3037 5.22361 25.8537 5.22361 25.5537 5.52361L22.1037 8.97361C21.8037 9.27361 21.8037 9.72361 22.1037 10.0236L22.3287 10.2486C21.8787 10.6236 21.2787 10.8486 20.6787 10.9236C20.0037 10.9986 19.3287 11.2236 18.7287 11.5986L18.2787 11.1486C17.5287 10.3986 16.4787 9.87361 15.3537 9.72361C14.7537 9.64861 14.2287 9.42361 13.7037 9.04861L13.9287 8.82361C14.2287 8.52361 14.2287 8.07361 13.9287 7.77361L10.4787 4.32361C10.0287 3.87361 9.57866 4.17361 9.42866 4.32361L0.353658 13.6236C0.203658 13.7736 -0.021342 14.2986 0.353658 14.6736L3.80366 18.1236C4.17866 18.5736 4.70366 18.2736 4.85366 18.1236L5.15366 17.8236C5.52866 18.2736 5.67866 18.7986 5.75366 19.3236C5.90366 20.4486 6.42866 21.5736 7.17866 22.3236L7.55366 22.6986L6.87866 23.3736C4.77866 25.9236 7.17866 27.6486 8.00366 27.7236C7.85366 28.0986 7.85366 28.4736 7.77866 28.8486C7.70366 29.4486 8.82866 31.8486 11.2287 30.9486C11.3037 31.3986 11.5287 31.8486 11.9037 32.1486C13.6287 33.6486 15.2037 32.4486 15.5787 32.0736L16.2537 31.3986C16.2537 31.3986 17.9037 33.8736 20.2287 32.3736C20.6787 32.0736 20.9787 31.6236 21.1287 31.1736C23.4537 32.7486 25.1037 30.3486 25.1037 29.7486C26.3787 30.2736 27.4287 29.5236 27.8037 29.1486C28.5537 28.3986 28.7037 27.3486 28.4037 26.4486C28.8537 26.2986 31.1787 25.3236 29.9037 22.6236C30.2787 22.0236 30.5037 21.3486 30.6537 20.5986C30.7287 19.9986 30.9537 19.4736 31.3287 18.9486C31.3287 18.9486 32.0037 19.8486 32.6037 19.1736L36.0537 15.7236C36.2037 15.5736 36.2037 15.1236 35.9037 14.8236ZM4.32866 16.4736L2.00366 14.1486L10.2537 5.89861L12.5787 8.22361L4.32866 16.4736ZM7.77866 25.9986C7.40366 25.6236 7.47866 24.8736 7.92866 24.4986L8.60366 23.8236L10.1037 25.3236L9.35366 26.0736C8.60366 26.5986 8.00366 26.1486 7.77866 25.9986ZM9.65366 29.4486C8.82866 28.8486 9.42866 28.0236 10.1037 27.3486C10.1787 27.2736 11.1537 26.3736 11.1537 26.3736L12.6537 27.8736C12.5787 27.7986 10.7037 30.3486 9.65366 29.4486ZM14.3787 31.0986C14.0037 31.4736 13.3287 31.4736 12.8787 31.0986C12.5037 30.7236 12.5037 30.2736 12.7287 29.8236C12.9537 29.5986 13.6287 28.8486 13.6287 28.8486L15.0537 30.2736L14.3787 31.0986ZM28.4787 24.7236C27.8787 25.3236 27.2037 24.9486 26.9787 24.7236L22.4037 20.1486C22.1037 19.8486 21.6537 19.8486 21.3537 20.1486C21.0537 20.4486 21.0537 20.8986 21.3537 21.1986L26.7537 26.5986C27.1287 26.9736 27.1287 27.6486 26.7537 28.0986C26.3787 28.4736 25.7037 28.4736 25.2537 28.0986L18.5787 21.4236C18.2787 21.1236 17.8287 21.1236 17.5287 21.4236C17.2287 21.7236 17.2287 22.1736 17.5287 22.4736L23.3787 28.3236C23.7537 28.6986 23.7537 29.3736 23.3787 29.8236C23.0037 30.1986 22.3287 30.1986 21.8787 29.8236L16.0287 23.9736C15.7287 23.6736 15.2787 23.6736 14.9787 23.9736C14.6787 24.2736 14.6787 24.7236 14.9787 25.0236L19.4787 29.5236C19.9287 29.9736 19.8537 30.6486 19.4787 31.0236C19.0287 31.3986 18.4287 31.3986 18.0537 31.0236L16.7787 29.7486L8.22866 21.2736C7.70366 20.7486 7.32866 19.9986 7.25366 19.2486C7.10366 18.3486 6.72866 17.4486 6.20366 16.7736L12.8787 10.0986C13.6287 10.6986 14.4537 11.0736 15.3537 11.1486C16.1037 11.2236 16.8537 11.5986 17.3787 12.1236L17.6037 12.3486L13.3287 15.0486C10.7037 16.8486 12.9537 20.5986 15.5787 19.3986L21.8787 16.6986L28.3287 23.1486C28.7787 23.6736 28.8537 24.3486 28.4787 24.7236ZM29.0037 20.4486C28.9287 20.8236 28.8537 21.1236 28.7037 21.4236L22.4787 15.1986C22.4787 15.1986 22.1787 14.8986 21.7287 15.1236L15.0537 18.0486C14.5287 18.2736 14.0037 18.0486 13.7037 17.5986C13.4787 17.1486 13.6287 16.5486 14.0787 16.2486L19.1787 13.1736C19.1787 13.1736 20.2287 12.4236 20.9787 12.4236C21.8787 12.4236 22.7787 11.8986 23.4537 11.3736L30.1287 18.0486C29.5287 18.7236 29.1537 19.5486 29.0037 20.4486ZM31.9287 17.7486L23.6787 9.49861L26.0037 7.17361L34.2537 15.4236L31.9287 17.7486Z" fill="#6500E0"/>
</g>
<defs>
<clipPath id="clip0_1657_433279">
<rect width="36" height="36" fill="white" transform="translate(0.125 0.5)"/>
</clipPath>
</defs>
</svg>
