<svg width="30" height="31" viewBox="0 0 30 31" fill="none" xmlns="http://www.w3.org/2000/svg">
<path d="M26.125 0.875H3.625C1.76391 0.875 0.25 2.38891 0.25 4.25V15.5C0.25 23.5645 6.81048 30.125 14.875 30.125C22.9395 30.125 29.5 23.5645 29.5 15.5V4.25C29.5 2.38891 27.9861 0.875 26.125 0.875ZM27.25 15.5C27.25 22.3236 21.6986 27.875 14.875 27.875C8.05139 27.875 2.5 22.3236 2.5 15.5V4.25C2.5 3.62982 3.00482 3.125 3.625 3.125H26.125C26.7452 3.125 27.25 3.62982 27.25 4.25V15.5Z" fill="#6500E0"/>
<path d="M20.5 5.375C18.0187 5.375 16 7.39373 16 9.875C16 10.4963 16.5037 11 17.125 11C17.7463 11 18.25 10.4963 18.25 9.875C18.25 8.63409 19.2591 7.625 20.5 7.625C21.7409 7.625 22.75 8.63409 22.75 9.875C22.75 10.4963 23.2537 11 23.875 11C24.4963 11 25 10.4963 25 9.875C25 7.39373 22.9813 5.375 20.5 5.375ZM11.5 9.875C11.5 10.4963 12.0037 11 12.625 11C13.2463 11 13.75 10.4963 13.75 9.875C13.75 7.39373 11.7313 5.375 9.25 5.375C6.76873 5.375 4.75 7.39373 4.75 9.875C4.75 10.4963 5.25372 11 5.875 11C6.49628 11 7 10.4963 7 9.875C7 8.63409 8.00909 7.625 9.25 7.625C10.4909 7.625 11.5 8.63409 11.5 9.875ZM19.648 19.2612C18.3731 20.5356 16.6779 21.2376 14.875 21.2376C13.0721 21.2376 11.3769 20.5356 10.102 19.2612L10.0454 19.2046C9.60705 18.7651 8.92315 18.7937 8.4826 19.2326C8.0437 19.672 8.07172 20.4125 8.51117 20.852C10.2585 22.5999 12.5519 23.4766 14.8541 23.4766C17.175 23.4766 19.5057 22.5851 21.2954 20.7954C21.7349 20.356 21.7063 19.672 21.2674 19.2326C20.8279 18.7926 20.0875 18.8228 19.648 19.2612Z" fill="#6500E0"/>
</svg>
