<svg width="24" height="24" viewBox="0 0 24 24" fill="none" xmlns="http://www.w3.org/2000/svg">
<path d="M12.159 6.25292C16.3565 6.25292 19.7593 5.58375 19.7593 4.7583C19.7593 3.93284 16.3565 3.26367 12.159 3.26367C7.96139 3.26367 4.55859 3.93284 4.55859 4.7583C4.55859 5.58375 7.96139 6.25292 12.159 6.25292Z" stroke="#3D3F4B" stroke-width="1.5" stroke-miterlimit="10" stroke-linecap="round" stroke-linejoin="round"/>
<path d="M19.7593 9.96289C19.7593 10.7883 16.3565 11.4575 12.159 11.4575C7.96141 11.4575 4.55859 10.7883 4.55859 9.96289M19.7593 15.1666C19.7593 15.9921 16.3565 16.6612 12.159 16.6612C7.96141 16.6612 4.55859 15.9921 4.55859 15.1666M19.7593 20.3703C19.7593 21.1958 16.3565 21.865 12.159 21.865C7.96141 21.865 4.55859 21.1958 4.55859 20.3703" stroke="#292D32" stroke-width="1.5" stroke-miterlimit="10" stroke-linecap="round" stroke-linejoin="round"/>
<path d="M4.55078 4.75195V20.352" stroke="#292D32" stroke-width="1.5" stroke-miterlimit="10" stroke-linecap="round" stroke-linejoin="round"/>
<path d="M19.7656 4.75195V20.352" stroke="#292D32" stroke-width="1.5" stroke-miterlimit="10" stroke-linecap="round" stroke-linejoin="round"/>
</svg>
