<svg width="37" height="37" viewBox="0 0 37 37" fill="none" xmlns="http://www.w3.org/2000/svg">
<path d="M8.81969 20.1211L8.80469 27.1561C8.80469 29.0611 10.2747 31.1011 12.0747 31.7011L16.8597 33.2911C17.6847 33.5611 19.0497 33.5611 19.8897 33.2911L24.6747 31.7011C26.4747 31.1011 27.9447 29.0611 27.9447 27.1561V20.1961" stroke="#6500E0" stroke-width="2.25" stroke-linecap="round" stroke-linejoin="round"/>
<path d="M15.4512 4.29298L6.42125 10.188C3.52625 12.078 3.52625 16.308 6.42125 18.198L15.4512 24.093C17.0712 25.158 19.7412 25.158 21.3612 24.093L30.3462 18.198C33.2262 16.308 33.2262 12.093 30.3462 10.203L21.3612 4.30798C19.7412 3.22798 17.0712 3.22798 15.4512 4.29298Z" stroke="#6500E0" stroke-width="2.25" stroke-linecap="round" stroke-linejoin="round"/>
<path d="M32.4727 23V14" stroke="#6500E0" stroke-width="2.25" stroke-linecap="round" stroke-linejoin="round"/>
</svg>
