<svg width="37" height="37" viewBox="0 0 37 37" fill="none" xmlns="http://www.w3.org/2000/svg">
<path d="M7.27204 24.8529L6.47656 25.6484L10.9768 30.1485L11.7722 29.353L7.27204 24.8529Z" fill="#6500E0"/>
<path d="M13.625 19.625C11.7637 19.625 10.25 21.1387 10.25 23C10.25 24.8613 11.7637 26.375 13.625 26.375C15.4863 26.375 17 24.8613 17 23C17 21.1387 15.4863 19.625 13.625 19.625ZM13.625 25.25C12.3841 25.25 11.375 24.2409 11.375 23C11.375 21.7591 12.3841 20.75 13.625 20.75C14.8659 20.75 15.875 21.7591 15.875 23C15.875 24.2409 14.8659 25.25 13.625 25.25Z" fill="#6500E0"/>
<path d="M26 27.5H24.875V28.625H26V27.5Z" fill="#6500E0"/>
<path d="M28.25 27.5H27.125V28.625H28.25V27.5Z" fill="#6500E0"/>
<path d="M30.5 27.5H29.375V28.625H30.5V27.5Z" fill="#6500E0"/>
<path d="M32.75 27.5H31.625V28.625H32.75V27.5Z" fill="#6500E0"/>
<path d="M26 29.75H24.875V30.875H26V29.75Z" fill="#6500E0"/>
<path d="M28.25 29.75H27.125V30.875H28.25V29.75Z" fill="#6500E0"/>
<path d="M30.5 29.75H29.375V30.875H30.5V29.75Z" fill="#6500E0"/>
<path d="M32.75 29.75H31.625V30.875H32.75V29.75Z" fill="#6500E0"/>
<path d="M26 32H24.875V33.125H26V32Z" fill="#6500E0"/>
<path d="M28.25 32H27.125V33.125H28.25V32Z" fill="#6500E0"/>
<path d="M30.5 32H29.375V33.125H30.5V32Z" fill="#6500E0"/>
<path d="M32.75 32H31.625V33.125H32.75V32Z" fill="#6500E0"/>
<path d="M34.4375 21.312H23.9148C24.2259 20.4424 24.3648 19.503 24.2928 18.5439C24.2377 17.8082 24.056 17.1067 23.7792 16.4531L29.9375 10.2949L30.1023 10.4597C30.2081 10.566 30.3515 10.6245 30.5 10.6245C30.5163 10.6245 30.5326 10.6239 30.5489 10.6222C30.7149 10.6082 30.8651 10.5204 30.9607 10.3843L31.5024 9.61031L32.3517 10.4597L33.1471 9.66431L32.1571 8.67431L33.1235 7.29393L34.0392 8.20968L34.8346 7.41431L33.7788 6.35849L34.8982 4.75987C35.0546 4.53656 35.0276 4.23224 34.8352 4.03987L32.5852 1.78987C32.3923 1.59693 32.0879 1.56993 31.8652 1.72687L30.2666 2.84624L29.2108 1.79043L28.4154 2.58581L29.3311 3.50156L27.9507 4.46793L26.9608 3.47793L26.1654 4.27331L27.0148 5.12268L26.2408 5.66437C26.1046 5.75999 26.0174 5.91074 26.0028 6.07612C25.9888 6.24149 26.0478 6.40518 26.1654 6.52274L26.3296 6.68699L20.1714 12.8452C19.5178 12.5685 18.8163 12.3868 18.0806 12.3317C15.0909 12.1072 12.2722 13.914 11.2355 16.7259C11.0898 17.1202 10.709 17.3745 10.2522 17.3745C10.2511 17.3745 10.25 17.3745 10.25 17.3745C7.76712 17.3745 5.45581 18.3639 3.74019 20.1594C2.02625 21.9538 1.14594 24.3124 1.26012 26.7986C1.47106 31.3903 5.23306 35.1534 9.82644 35.3649C9.96987 35.3711 10.1128 35.3745 10.2556 35.3745C12.5833 35.3745 14.7742 34.4987 16.4651 32.8843C18.2606 31.1687 19.25 28.8574 19.25 26.361C19.2494 25.9166 19.5037 25.5347 19.8986 25.389C20.9741 24.9924 21.9011 24.3343 22.625 23.5069V25.812V34.812C22.625 35.1231 22.8764 35.3745 23.1875 35.3745H34.4375C34.7486 35.3745 35 35.1231 35 34.812V25.812V21.8745C35 21.5634 34.7486 21.312 34.4375 21.312ZM32.1234 2.91881L33.7057 4.50112L30.4235 9.19012L27.4344 6.20099L32.1234 2.91881ZM19.5099 24.3332C18.6673 24.6442 18.1233 25.4407 18.125 26.3745C18.125 28.5469 17.2593 30.5696 15.6882 32.0709C14.1177 33.57 12.059 34.3457 9.87762 34.2405C5.85969 34.0554 2.5685 30.7637 2.384 26.7469C2.28331 24.5706 3.05394 22.5067 4.55356 20.9362C6.05488 19.3652 8.07763 18.4995 10.2618 18.4995C10.2635 18.4995 10.2646 18.4995 10.2657 18.4995C11.1866 18.4995 11.9814 17.9561 12.2919 17.1146C13.1688 14.7352 15.4548 13.2632 17.9979 13.4533C20.7423 13.6586 22.9664 15.8827 23.1718 18.6272C23.3613 21.1629 21.8893 23.4562 19.5099 24.3332ZM21.2109 13.3971L27.125 7.48237L29.1421 9.49949L23.2274 15.4136C22.7049 14.6076 22.0169 13.9196 21.2109 13.3971ZM33.875 34.2495H23.75V26.3745H33.875V34.2495ZM33.875 25.2495H23.75V22.437H33.875V25.2495ZM3.5 13.9995C4.76169 13.9995 5.75 13.2587 5.75 12.312V6.62118L13.625 5.63681V8.60231C13.2948 8.46112 12.9151 8.37449 12.5 8.37449C11.2383 8.37449 10.25 9.11531 10.25 10.062C10.25 11.0087 11.2383 11.7495 12.5 11.7495C13.7617 11.7495 14.75 11.0087 14.75 10.062V2.18699C14.75 2.02556 14.6808 1.87199 14.5599 1.76512C14.4395 1.65881 14.2764 1.61043 14.1177 1.62899L5.11775 2.75399C4.8365 2.78887 4.625 3.02849 4.625 3.31199V10.8517C4.29481 10.7111 3.91512 10.6245 3.5 10.6245C2.23831 10.6245 1.25 11.3653 1.25 12.312C1.25 13.2587 2.23831 13.9995 3.5 13.9995ZM12.5 10.6245C11.8132 10.6245 11.375 10.2915 11.375 10.062C11.375 9.83249 11.8132 9.49949 12.5 9.49949C13.1868 9.49949 13.625 9.83249 13.625 10.062C13.625 10.2915 13.1868 10.6245 12.5 10.6245ZM5.75 3.80868L13.625 2.82431V4.50281L5.75 5.48718V3.80868ZM3.5 11.7495C4.18681 11.7495 4.625 12.0825 4.625 12.312C4.625 12.5415 4.18681 12.8745 3.5 12.8745C2.81319 12.8745 2.375 12.5415 2.375 12.312C2.375 12.0825 2.81319 11.7495 3.5 11.7495Z" fill="#6500E0"/>
</svg>
