<svg width="32" height="61" viewBox="0 0 32 61" fill="none" xmlns="http://www.w3.org/2000/svg">
<path d="M15.5819 30.4999C15.5819 32.4799 13.9819 34.0799 12.0019 34.0799C10.0219 34.0799 8.42188 32.4799 8.42188 30.4999C8.42188 28.5199 10.0219 26.9199 12.0019 26.9199C13.9819 26.9199 15.5819 28.5199 15.5819 30.4999Z" stroke="#6500E0" stroke-width="1.5" stroke-linecap="round" stroke-linejoin="round"/>
<path d="M11.9998 38.7707C15.5298 38.7707 18.8198 36.6907 21.1098 33.0907C22.0098 31.6807 22.0098 29.3107 21.1098 27.9007C18.8198 24.3007 15.5298 22.2207 11.9998 22.2207C8.46984 22.2207 5.17984 24.3007 2.88984 27.9007C1.98984 29.3107 1.98984 31.6807 2.88984 33.0907C5.17984 36.6907 8.46984 38.7707 11.9998 38.7707Z" stroke="#6500E0" stroke-width="1.5" stroke-linecap="round" stroke-linejoin="round"/>
</svg>
