<svg width="24" height="25" viewBox="0 0 24 25" fill="none" xmlns="http://www.w3.org/2000/svg">
<path d="M11.9999 16.33C9.88606 16.33 8.16992 14.6138 8.16992 12.5C8.16992 10.3861 9.88606 8.66998 11.9999 8.66998C14.1138 8.66998 15.8299 10.3861 15.8299 12.5C15.8299 14.6138 14.1138 16.33 11.9999 16.33ZM11.9999 9.16998C10.1638 9.16998 8.66992 10.6638 8.66992 12.5C8.66992 14.3361 10.1638 15.83 11.9999 15.83C13.8361 15.83 15.3299 14.3361 15.3299 12.5C15.3299 10.6638 13.8361 9.16998 11.9999 9.16998Z" fill="#292D32" stroke="#FF3B30"/>
<path d="M2.67146 15.2308L2.67075 15.2297C2.2037 14.5027 1.95508 13.5171 1.95508 12.5037C1.95508 11.4907 2.20356 10.5021 2.67121 9.76951C5.05218 6.05738 8.45904 3.97998 12.0001 3.97998C15.5413 3.97998 18.948 6.05756 21.3187 9.76913L21.3194 9.77023C21.7865 10.4972 22.0351 11.4828 22.0351 12.4962C22.0351 13.5095 21.7865 14.4982 21.3187 15.2309C18.9479 18.9424 15.5413 21.02 12.0001 21.02C8.44863 21.02 5.04205 18.9422 2.67146 15.2308ZM12.0001 4.47998C8.55682 4.47998 5.32506 6.54702 3.09877 10.0407C2.65861 10.7277 2.45758 11.6313 2.45758 12.5C2.45758 13.3684 2.6585 14.2718 3.0984 14.9587C5.3247 18.4527 8.55663 20.52 12.0001 20.52C15.4433 20.52 18.6751 18.4529 20.9014 14.9592C21.3415 14.2723 21.5426 13.3686 21.5426 12.5C21.5426 11.6312 21.3415 10.7274 20.9012 10.0404C18.6749 6.54689 15.4432 4.47998 12.0001 4.47998Z" fill="#292D32" stroke="#FF3B30"/>
</svg>
