<svg width="25" height="25" viewBox="0 0 25 25" fill="none" xmlns="http://www.w3.org/2000/svg">
<g clip-path="url(#clip0_4_442)">
<path d="M12.5 24.4529C19.1275 24.4529 24.5 19.0803 24.5 12.4529C24.5 5.82546 19.1275 0.452881 12.5 0.452881C5.87262 0.452881 0.500038 5.82546 0.500038 12.4529C0.500038 19.0803 5.87262 24.4529 12.5 24.4529Z" fill="#3C5A9A"/>
<path d="M16.4019 4.13623H13.7436C12.1661 4.13623 10.4114 4.79971 10.4114 7.0864C10.4191 7.88316 10.4114 8.64623 10.4114 9.50502H8.58645V12.4091H10.4679V20.7695H13.9252V12.3539H16.2071L16.4135 9.49687H13.8656C13.8656 9.49687 13.8713 8.22593 13.8656 7.85684C13.8656 6.95319 14.8059 7.00494 14.8624 7.00494C15.3099 7.00494 16.1799 7.00625 16.4032 7.00494V4.13623H16.4019Z" fill="white"/>
</g>
<defs>
<clipPath id="clip0_4_442">
<rect width="24" height="24" fill="white" transform="translate(0.5 0.452881)"/>
</clipPath>
</defs>
</svg>
