<svg width="24" height="24" viewBox="0 0 24 24" fill="none" xmlns="http://www.w3.org/2000/svg">
<path d="M2.07934 14.3202L2.07938 14.3202L2.07879 14.3138C2.00067 13.4719 2.24282 12.6316 2.77977 11.9544C3.42508 11.1714 4.33249 10.75 5.31093 10.75H18.6909C19.6485 10.75 20.5535 11.1704 21.168 11.8996L21.327 12.1147C21.3274 12.1152 21.3277 12.1156 21.328 12.1161C21.7938 12.7551 22.0014 13.5317 21.9234 14.3208L21.9233 14.3208L21.9225 14.33L21.5229 19.3155C21.4452 20.1025 21.3645 20.8006 20.9734 21.3267C20.6136 21.8107 19.9016 22.25 18.2909 22.25H5.71093C4.10031 22.25 3.388 21.8107 3.02818 21.3276C2.63728 20.8027 2.55667 20.1072 2.47896 19.3254L2.07934 14.3202ZM3.15737 12.2864L3.13566 12.3082L3.11677 12.3324C2.71348 12.8491 2.51243 13.5569 2.58289 14.2745L2.98251 19.2798L2.98245 19.2798L2.98321 19.2877L2.98412 19.2972C3.01789 19.6495 3.05034 19.9878 3.11484 20.2784C3.18125 20.5775 3.29142 20.8765 3.51452 21.1259C3.96293 21.6271 4.70289 21.75 5.71093 21.75H18.2909C19.3027 21.75 20.0448 21.6276 20.4925 21.1231C20.7149 20.8723 20.8236 20.5719 20.8889 20.2722C20.9513 19.9855 20.9831 19.6517 21.0162 19.3037L21.0187 19.2774L21.0187 19.2774L21.0193 19.2698L21.4189 14.265C21.4903 13.5489 21.2836 12.8253 20.8038 12.2584C20.8033 12.2578 20.8028 12.2572 20.8023 12.2567L20.705 12.1399L20.694 12.1267L20.6821 12.1142C20.139 11.547 19.4391 11.25 18.6809 11.25H5.31093C4.50224 11.25 3.72657 11.6077 3.20959 12.2342L3.15737 12.2864Z" fill="#3D3F4B" stroke="#3D3F4B"/>
<path d="M20.5 12.22C20.09 12.22 19.75 11.88 19.75 11.47V9.68003C19.75 6.70003 19.23 6.18003 16.25 6.18003H13.7C12.57 6.18003 12.18 5.78003 11.75 5.21003L10.46 3.50003C10.02 2.92003 9.92 2.78003 9.02 2.78003H7.75C4.77 2.78003 4.25 3.30003 4.25 6.28003V11.43C4.25 11.84 3.91 12.18 3.5 12.18C3.09 12.18 2.75 11.84 2.75 11.43V6.28003C2.75 2.45003 3.92 1.28003 7.75 1.28003H9.03C10.57 1.28003 11.05 1.78003 11.67 2.60003L12.95 4.30003C13.22 4.66003 13.24 4.68003 13.71 4.68003H16.26C20.09 4.68003 21.26 5.85003 21.26 9.68003V11.47C21.25 11.88 20.91 12.22 20.5 12.22Z" fill="#3D3F4B"/>
<path d="M14.5697 17.75H9.42969C9.01969 17.75 8.67969 17.41 8.67969 17C8.67969 16.59 9.01969 16.25 9.42969 16.25H14.5697C14.9797 16.25 15.3197 16.59 15.3197 17C15.3197 17.41 14.9897 17.75 14.5697 17.75Z" fill="#3D3F4B"/>
</svg>
