<svg width="32" height="60" viewBox="0 0 32 60" fill="none" xmlns="http://www.w3.org/2000/svg">
<path d="M9.16055 28.87C9.06055 28.86 8.94055 28.86 8.83055 28.87C6.45055 28.79 4.56055 26.84 4.56055 24.44C4.56055 21.99 6.54055 20 9.00055 20C11.4505 20 13.4405 21.99 13.4405 24.44C13.4305 26.84 11.5405 28.79 9.16055 28.87Z" stroke="#3D3F4B" stroke-width="1.5" stroke-linecap="round" stroke-linejoin="round"/>
<path d="M16.4093 22C18.3493 22 19.9093 23.57 19.9093 25.5C19.9093 27.39 18.4093 28.93 16.5393 29C16.4593 28.99 16.3693 28.99 16.2793 29" stroke="#3D3F4B" stroke-width="1.5" stroke-linecap="round" stroke-linejoin="round"/>
<path d="M4.1607 32.56C1.7407 34.18 1.7407 36.82 4.1607 38.43C6.9107 40.27 11.4207 40.27 14.1707 38.43C16.5907 36.81 16.5907 34.17 14.1707 32.56C11.4307 30.73 6.9207 30.73 4.1607 32.56Z" stroke="#3D3F4B" stroke-width="1.5" stroke-linecap="round" stroke-linejoin="round"/>
<path d="M18.3398 38C19.0598 37.85 19.7398 37.56 20.2998 37.13C21.8598 35.96 21.8598 34.03 20.2998 32.86C19.7498 32.44 19.0798 32.16 18.3698 32" stroke="#3D3F4B" stroke-width="1.5" stroke-linecap="round" stroke-linejoin="round"/>
</svg>
