<svg width="32" height="60" viewBox="0 0 32 60" fill="none" xmlns="http://www.w3.org/2000/svg">
<path d="M12 40C17.5228 40 22 35.5228 22 30C22 24.4772 17.5228 20 12 20C6.47715 20 2 24.4772 2 30C2 35.5228 6.47715 40 12 40Z" stroke="#3D3F4B" stroke-width="1.5" stroke-linecap="round" stroke-linejoin="round"/>
<path d="M7.99961 21H8.99961C7.04961 26.84 7.04961 33.16 8.99961 39H7.99961" stroke="#3D3F4B" stroke-width="1.5" stroke-linecap="round" stroke-linejoin="round"/>
<path d="M15 21C16.95 26.84 16.95 33.16 15 39" stroke="#292D32" stroke-width="1.5" stroke-linecap="round" stroke-linejoin="round"/>
<path d="M3 34V33C8.84 34.95 15.16 34.95 21 33V34" stroke="#292D32" stroke-width="1.5" stroke-linecap="round" stroke-linejoin="round"/>
<path d="M3 26.9996C8.84 25.0496 15.16 25.0496 21 26.9996" stroke="#292D32" stroke-width="1.5" stroke-linecap="round" stroke-linejoin="round"/>
</svg>
