<svg width="17" height="16" viewBox="0 0 17 16" fill="none" xmlns="http://www.w3.org/2000/svg">
<g clip-path="url(#clip0_5710_115020)">
<path d="M16.0942 8.18417C16.0942 7.64035 16.0501 7.09359 15.956 6.55859H8.41016V9.63925H12.7313C12.552 10.6328 11.9758 11.5117 11.1322 12.0703V14.0692H13.7102C15.2241 12.6758 16.0942 10.6181 16.0942 8.18417Z" fill="#4285F4"/>
<path d="M8.41072 16.0005C10.5684 16.0005 12.3879 15.292 13.7137 14.0692L11.1357 12.0703C10.4184 12.5582 9.49248 12.8346 8.41366 12.8346C6.32657 12.8346 4.55696 11.4265 3.92202 9.53345H1.26172V11.5941C2.61979 14.2955 5.38592 16.0005 8.41072 16.0005Z" fill="#34A853"/>
<path d="M3.91852 9.53356C3.58341 8.53999 3.58341 7.46411 3.91852 6.47054V4.40991H1.26116C0.126489 6.67043 0.126489 9.33367 1.26116 11.5942L3.91852 9.53356Z" fill="#FBBC04"/>
<path d="M8.41072 3.16644C9.55127 3.1488 10.6536 3.57798 11.4796 4.36578L13.7636 2.08174C12.3174 0.72367 10.3979 -0.0229773 8.41072 0.000539111C5.38592 0.000539111 2.61979 1.70548 1.26172 4.40987L3.91908 6.4705C4.55108 4.57449 6.32363 3.16644 8.41072 3.16644Z" fill="#EA4335"/>
</g>
<defs>
<clipPath id="clip0_5710_115020">
<rect width="16" height="16" fill="white" transform="translate(0.25)"/>
</clipPath>
</defs>
</svg>
