<svg width="10" height="9" viewBox="0 0 10 9" fill="none" xmlns="http://www.w3.org/2000/svg">
<path d="M2.06284 3.036C2.06284 2.98716 2.02348 2.94748 1.97495 2.94748H0.0877896C0.0392632 2.94748 0 2.98716 0 3.036V6.19159C0 6.24053 0.0393685 6.28011 0.0877896 6.28011H1.97495C2.02348 6.28011 2.06284 6.24043 2.06284 6.19159C2.06369 5.28411 2.06221 3.95358 2.06284 3.036ZM1.97495 6.64843H0.0877896C0.0392632 6.64843 0 6.68811 0 6.73695V8.63906C0 8.68801 0.0393685 8.72759 0.0877896 8.72759H1.97495C2.02348 8.72759 2.06284 8.6879 2.06284 8.63906V6.73695C2.06284 6.68801 2.02348 6.64843 1.97495 6.64843ZM6.0079 5.1379C5.95085 5.08885 5.86306 5.12969 5.86306 5.20527V6.5599C5.86306 6.60885 5.82369 6.64843 5.77527 6.64843H2.516C2.46748 6.64843 2.42821 6.68811 2.42821 6.73695V8.63906C2.42821 8.68801 2.46758 8.72759 2.516 8.72759C3.78916 8.72759 6.52685 8.72759 7.77875 8.72759C7.82727 8.72759 7.86654 8.6879 7.86654 8.63906V6.77864C7.86654 6.75274 7.85527 6.72811 7.83569 6.71127L6.0079 5.1379ZM9.90117 1.472C9.87791 1.46084 9.79591 1.42958 9.71664 1.49463L8.26412 2.69495C8.2438 2.71179 8.23201 2.73684 8.23201 2.76348V6.5239C8.23201 6.55043 8.2438 6.57559 8.26412 6.59232L9.7238 7.79864C9.82822 7.88611 10.0067 7.79717 9.9998 7.65811V1.62916C9.9998 1.52705 9.92433 1.48305 9.90117 1.472ZM0.346632 2.57927H1.97505C2.02358 2.57927 2.06295 2.53958 2.06295 2.49074V0.858C2.06295 0.779263 1.96853 0.739685 1.91316 0.795264L0.284632 2.4279C0.229053 2.48369 0.268211 2.57927 0.346632 2.57927ZM7.72275 3.14737L6.04453 4.54874C6.00253 4.58379 6.00211 4.64853 6.04348 4.68422L7.72169 6.12874C7.77875 6.1778 7.86664 6.13695 7.86664 6.06137V3.21558C7.86664 3.14063 7.78001 3.09958 7.72275 3.14737ZM7.77875 0.5H2.516C2.46748 0.5 2.42821 0.539684 2.42821 0.588526V2.49063C2.42821 2.53958 2.46758 2.57916 2.516 2.57916H5.77516C5.82369 2.57916 5.86295 2.61884 5.86295 2.66769V4.03379C5.86295 4.10874 5.94959 4.14979 6.00685 4.102L7.83475 2.57558C7.85485 2.55874 7.86654 2.53379 7.86654 2.50737V0.588632C7.86664 0.539684 7.82727 0.5 7.77875 0.5Z" fill="#999BAD"/>
</svg>
