<svg width="25" height="25" viewBox="0 0 25 25" fill="none" xmlns="http://www.w3.org/2000/svg">
<g clip-path="url(#clip0_4_445)">
<path d="M24.5 12.7251C24.5 11.7183 24.4183 10.9836 24.2415 10.2217H12.7449V14.7658H19.4931C19.3571 15.8951 18.6224 17.5958 16.9898 18.7386L16.9669 18.8907L20.6019 21.7067L20.8537 21.7319C23.1666 19.5958 24.5 16.4529 24.5 12.7251Z" fill="#4285F4"/>
<path d="M12.7449 24.6979C16.051 24.6979 18.8265 23.6094 20.8537 21.7319L16.9898 18.7386C15.9558 19.4597 14.568 19.9631 12.7449 19.9631C9.50682 19.9631 6.75854 17.8271 5.77886 14.8748L5.63526 14.8869L1.85552 17.8121L1.80609 17.9495C3.81968 21.9495 7.95574 24.6979 12.7449 24.6979Z" fill="#34A853"/>
<path d="M5.77886 14.8747C5.52036 14.1128 5.37076 13.2964 5.37076 12.4529C5.37076 11.6093 5.52036 10.7931 5.76526 10.0312L5.75841 9.8689L1.93131 6.89673L1.80609 6.95629C0.976196 8.61617 0.5 10.4802 0.5 12.4529C0.5 14.4257 0.976196 16.2896 1.80609 17.9495L5.77886 14.8747Z" fill="#FBBC05"/>
<path d="M12.7449 4.94267C15.0442 4.94267 16.5952 5.93586 17.4796 6.76585L20.9353 3.39168C18.8129 1.4189 16.051 0.208008 12.7449 0.208008C7.95574 0.208008 3.81968 2.95629 1.80609 6.95625L5.76526 10.0311C6.75855 7.07875 9.50682 4.94267 12.7449 4.94267Z" fill="#EB4335"/>
</g>
<defs>
<clipPath id="clip0_4_445">
<rect width="24" height="24.56" fill="white" transform="translate(0.5 0.172974)"/>
</clipPath>
</defs>
</svg>
