<svg width="32" height="60" viewBox="0 0 32 60" fill="none" xmlns="http://www.w3.org/2000/svg">
<path d="M18.0001 25.16C17.9401 25.15 17.8701 25.15 17.8101 25.16C16.4301 25.11 15.3301 23.98 15.3301 22.58C15.3301 21.15 16.4801 20 17.9101 20C19.3401 20 20.4901 21.16 20.4901 22.58C20.4801 23.98 19.3801 25.11 18.0001 25.16Z" stroke="#3D3F4B" stroke-width="1.5" stroke-linecap="round" stroke-linejoin="round"/>
<path d="M16.9695 32.4402C18.3395 32.6702 19.8495 32.4302 20.9095 31.7202C22.3195 30.7802 22.3195 29.2402 20.9095 28.3002C19.8395 27.5902 18.3095 27.3502 16.9395 27.5902" stroke="#3D3F4B" stroke-width="1.5" stroke-linecap="round" stroke-linejoin="round"/>
<path d="M5.96852 25.16C6.02852 25.15 6.09852 25.15 6.15852 25.16C7.53852 25.11 8.63852 23.98 8.63852 22.58C8.63852 21.15 7.48852 20 6.05852 20C4.62852 20 3.47852 21.16 3.47852 22.58C3.48852 23.98 4.58852 25.11 5.96852 25.16Z" stroke="#3D3F4B" stroke-width="1.5" stroke-linecap="round" stroke-linejoin="round"/>
<path d="M6.99945 32.4402C5.62945 32.6702 4.11945 32.4302 3.05945 31.7202C1.64945 30.7802 1.64945 29.2402 3.05945 28.3002C4.12945 27.5902 5.65945 27.3502 7.02945 27.5902" stroke="#3D3F4B" stroke-width="1.5" stroke-linecap="round" stroke-linejoin="round"/>
<path d="M12.0001 32.6307C11.9401 32.6207 11.8701 32.6207 11.8101 32.6307C10.4301 32.5807 9.33008 31.4507 9.33008 30.0507C9.33008 28.6207 10.4801 27.4707 11.9101 27.4707C13.3401 27.4707 14.4901 28.6307 14.4901 30.0507C14.4801 31.4507 13.3801 32.5907 12.0001 32.6307Z" stroke="#3D3F4B" stroke-width="1.5" stroke-linecap="round" stroke-linejoin="round"/>
<path d="M9.0907 35.7813C7.6807 36.7213 7.6807 38.2613 9.0907 39.2013C10.6907 40.2713 13.3107 40.2713 14.9107 39.2013C16.3207 38.2613 16.3207 36.7213 14.9107 35.7813C13.3207 34.7213 10.6907 34.7213 9.0907 35.7813Z" stroke="#3D3F4B" stroke-width="1.5" stroke-linecap="round" stroke-linejoin="round"/>
</svg>
