<svg width="51" height="51" viewBox="0 0 51 51" fill="none" xmlns="http://www.w3.org/2000/svg">
<rect width="51" height="51" rx="10" fill="#6500E0"/>
<path d="M15.7444 8.28173C15.7444 8.98962 15.1903 9.56347 14.5067 9.56347C13.8232 9.56347 13.2691 8.98962 13.2691 8.28173C13.2691 7.57385 13.8232 7 14.5067 7C15.1903 7 15.7444 7.57385 15.7444 8.28173Z" fill="white"/>
<path fill-rule="evenodd" clip-rule="evenodd" d="M14.9103 10.3994H14.2377L13.8608 25.942C13.3055 27.3731 13 28.936 13 30.5728C13 37.4361 18.3726 43 25 43C31.6274 43 37 37.4361 37 30.5728C37 23.7094 31.6274 18.1455 25 18.1455C21.7714 18.1455 18.8407 19.4659 16.6838 21.6137L14.9103 10.3994ZM21.0717 22.8824H26.8565C28.6545 22.8824 30.1121 24.3918 30.1121 26.2539C30.1121 28.1159 28.6545 29.6254 26.8565 29.6254H21.0717V22.8824ZM26.8565 30.1827H21.0717V36.9257H26.8565C28.6545 36.9257 30.1121 35.4162 30.1121 33.5542C30.1121 31.6921 28.6545 30.1827 26.8565 30.1827Z" fill="white"/>
</svg>
