<svg width="24" height="24" viewBox="0 0 24 24" fill="none" xmlns="http://www.w3.org/2000/svg">
<path d="M12.53 20.4201H6.21C3.05 20.4201 2 18.3201 2 16.2101V7.79008C2 4.63008 3.05 3.58008 6.21 3.58008H12.53C15.69 3.58008 16.74 4.63008 16.74 7.79008V16.2101C16.74 19.3701 15.68 20.4201 12.53 20.4201Z" stroke="#3D3F4B" stroke-width="1.5" stroke-linecap="round" stroke-linejoin="round"/>
<path d="M19.5202 17.1001L16.7402 15.1501V8.84013L19.5202 6.89013C20.8802 5.94013 22.0002 6.52013 22.0002 8.19013V15.8101C22.0002 17.4801 20.8802 18.0601 19.5202 17.1001Z" stroke="#3D3F4B" stroke-width="1.5" stroke-linecap="round" stroke-linejoin="round"/>
<path d="M11.5 11C12.3284 11 13 10.3284 13 9.5C13 8.67157 12.3284 8 11.5 8C10.6716 8 10 8.67157 10 9.5C10 10.3284 10.6716 11 11.5 11Z" stroke="#3D3F4B" stroke-width="1.5" stroke-linecap="round" stroke-linejoin="round"/>
<path d="M12.5529 17.4991C12.4609 17.4991 12.3809 17.4651 12.3129 17.3971C12.2449 17.3291 12.2109 17.2491 12.2109 17.1571V13.4611C12.2109 13.3691 12.2449 13.2891 12.3129 13.2211C12.3809 13.1531 12.4609 13.1191 12.5529 13.1191H14.5929C14.6849 13.1191 14.7649 13.1531 14.8329 13.2211C14.9009 13.2891 14.9349 13.3691 14.9349 13.4611C14.9349 13.5531 14.9009 13.6331 14.8329 13.7011C14.7649 13.7651 14.6849 13.7971 14.5929 13.7971H13.1049C13.0689 13.7971 13.0509 13.8151 13.0509 13.8511V14.8171C13.0509 14.8531 13.0689 14.8711 13.1049 14.8711H14.4909C14.5829 14.8711 14.6589 14.9031 14.7189 14.9671C14.7829 15.0311 14.8149 15.1071 14.8149 15.1951C14.8149 15.2831 14.7829 15.3591 14.7189 15.4231C14.6589 15.4831 14.5829 15.5131 14.4909 15.5131H13.1049C13.0689 15.5131 13.0509 15.5311 13.0509 15.5671V16.7671C13.0509 16.8031 13.0689 16.8211 13.1049 16.8211H14.5929C14.6849 16.8211 14.7649 16.8551 14.8329 16.9231C14.9009 16.9871 14.9349 17.0651 14.9349 17.1571C14.9349 17.2491 14.9009 17.3291 14.8329 17.3971C14.7649 17.4651 14.6849 17.4991 14.5929 17.4991H12.5529Z" fill="#3D3F4B"/>
<path d="M9.71841 17.1751L8.47641 13.4431C8.44841 13.3631 8.45841 13.2891 8.50641 13.2211C8.55441 13.1531 8.62041 13.1191 8.70441 13.1191H8.92041C9.02041 13.1191 9.11241 13.1511 9.19641 13.2151C9.28041 13.2751 9.33441 13.3531 9.35841 13.4491L10.2764 16.6711C10.2764 16.6751 10.2784 16.6771 10.2824 16.6771C10.2864 16.6771 10.2884 16.6751 10.2884 16.6711L11.2184 13.4431C11.2464 13.3471 11.3004 13.2691 11.3804 13.2091C11.4644 13.1491 11.5564 13.1191 11.6564 13.1191H11.8484C11.9324 13.1191 11.9984 13.1531 12.0464 13.2211C12.0944 13.2891 12.1044 13.3631 12.0764 13.4431L10.8344 17.1751C10.8024 17.2711 10.7444 17.3491 10.6604 17.4091C10.5804 17.4691 10.4884 17.4991 10.3844 17.4991H10.1684C10.0684 17.4991 9.97641 17.4691 9.89241 17.4091C9.81241 17.3491 9.75441 17.2711 9.71841 17.1751Z" fill="#3D3F4B"/>
<path d="M7.56661 17.4991C7.47461 17.4991 7.39461 17.4651 7.32661 17.3971C7.25861 17.3291 7.22461 17.2491 7.22461 17.1571V13.4611C7.22461 13.3691 7.25861 13.2891 7.32661 13.2211C7.39461 13.1531 7.47461 13.1191 7.56661 13.1191H7.80661C7.89861 13.1191 7.97861 13.1531 8.04661 13.2211C8.11461 13.2891 8.14861 13.3691 8.14861 13.4611V17.1571C8.14861 17.2491 8.11461 17.3291 8.04661 17.3971C7.97861 17.4651 7.89861 17.4991 7.80661 17.4991H7.56661Z" fill="#3D3F4B"/>
<path d="M4.31061 17.4991C4.21861 17.4991 4.13861 17.4651 4.07061 17.3971C4.00661 17.3291 3.97461 17.2491 3.97461 17.1571V13.4611C3.97461 13.3691 4.00661 13.2891 4.07061 13.2211C4.13861 13.1531 4.21861 13.1191 4.31061 13.1191H4.50261C4.59461 13.1191 4.67461 13.1531 4.74261 13.2211C4.81061 13.2891 4.84461 13.3691 4.84461 13.4611V16.7491C4.84461 16.7851 4.86061 16.8031 4.89261 16.8031H6.43461C6.52661 16.8031 6.60461 16.8371 6.66861 16.9051C6.73661 16.9691 6.77061 17.0471 6.77061 17.1391V17.1571C6.77061 17.2491 6.73661 17.3291 6.66861 17.3971C6.60461 17.4651 6.52661 17.4991 6.43461 17.4991H4.31061Z" fill="#3D3F4B"/>
</svg>
