<svg width="16" height="17" viewBox="0 0 16 17" fill="none" xmlns="http://www.w3.org/2000/svg">
<path d="M7.99797 9.50685C6.57797 9.50685 5.41797 8.35352 5.41797 6.92685C5.41797 5.50018 6.57797 4.35352 7.99797 4.35352C9.41797 4.35352 10.578 5.50685 10.578 6.93352C10.578 8.36018 9.41797 9.50685 7.99797 9.50685ZM7.99797 5.35352C7.1313 5.35352 6.41797 6.06018 6.41797 6.93352C6.41797 7.80685 7.12464 8.51352 7.99797 8.51352C8.8713 8.51352 9.57797 7.80685 9.57797 6.93352C9.57797 6.06018 8.86464 5.35352 7.99797 5.35352Z" fill="#3D3F4B"/>
<path d="M8.00109 15.2345C7.01443 15.2345 6.02109 14.8612 5.24776 14.1212C3.28109 12.2279 1.10776 9.20786 1.92776 5.61453C2.66776 2.35453 5.51443 0.894531 8.00109 0.894531C8.00109 0.894531 8.00109 0.894531 8.00776 0.894531C10.4944 0.894531 13.3411 2.35453 14.0811 5.6212C14.8944 9.21453 12.7211 12.2279 10.7544 14.1212C9.98109 14.8612 8.98776 15.2345 8.00109 15.2345ZM8.00109 1.89453C6.06109 1.89453 3.56776 2.92786 2.90776 5.83453C2.18776 8.97453 4.16109 11.6812 5.94776 13.3945C7.10109 14.5079 8.90776 14.5079 10.0611 13.3945C11.8411 11.6812 13.8144 8.97453 13.1078 5.83453C12.4411 2.92786 9.94109 1.89453 8.00109 1.89453Z" fill="#151619"/>
</svg>
