<svg width="56" height="34" viewBox="0 0 56 34" fill="none" xmlns="http://www.w3.org/2000/svg">
<g clip-path="url(#clip0_6551_201684)">
<rect width="56.8384" height="34.103" rx="6" fill="white"/>
<path fill-rule="evenodd" clip-rule="evenodd" d="M31.9028 17.3285C31.9028 23.4546 26.9371 28.4202 20.8111 28.4202C14.6849 28.4202 9.71875 23.4546 9.71875 17.3285C9.71875 11.2024 14.6849 6.23633 20.8111 6.23633C26.9371 6.23633 31.9028 11.2024 31.9028 17.3285Z" fill="#CC0000"/>
<path fill-rule="evenodd" clip-rule="evenodd" d="M35.7024 6.23633C32.8357 6.23633 30.2246 7.32365 28.2558 9.10739C27.8552 9.47094 27.4814 9.86359 27.1362 10.2817H29.3773C29.6833 10.6543 29.9654 11.0461 30.2229 11.4564H26.2904C26.0552 11.8335 25.8413 12.2253 25.6513 12.6312H30.8616C31.0397 13.0114 31.1964 13.403 31.3314 13.8055H25.1816C25.0536 14.188 24.9456 14.5799 24.8594 14.9796H31.6532C31.8159 15.7368 31.9025 16.5225 31.9025 17.3285C31.9025 18.5599 31.7018 19.7452 31.3314 20.8521H25.1816C25.3165 21.2542 25.4732 21.6464 25.651 22.0271H30.8616C30.6713 22.432 30.4585 22.8241 30.2218 23.2017H26.2904C26.5469 23.6108 26.8295 24.0031 27.1362 24.3753H29.3766C29.0321 24.7937 28.6579 25.1863 28.2561 25.5499C30.2248 27.3336 32.8357 28.4202 35.7024 28.4202C41.8283 28.4202 46.7942 23.4546 46.7942 17.3285C46.7942 11.203 41.8283 6.23633 35.7024 6.23633Z" fill="#FF9900"/>
<path fill-rule="evenodd" clip-rule="evenodd" d="M18.221 18.5412C18.0946 18.5268 18.0389 18.5223 17.9521 18.5223C17.2695 18.5223 16.9244 18.7565 16.9244 19.2191C16.9244 19.5039 17.0928 19.685 17.3558 19.685C17.8464 19.685 18.2 19.218 18.221 18.5412ZM19.0969 20.5801C18.9364 20.5801 18.0988 20.5801 18.0988 20.5801L18.1218 20.106C17.8175 20.4804 17.4113 20.6592 16.8597 20.6592C16.2073 20.6592 15.7598 20.1498 15.7598 19.4095C15.7598 18.2952 16.5379 17.6454 17.8738 17.6454C18.0107 17.6454 18.1856 17.658 18.3647 17.6807C18.4019 17.5296 18.4117 17.4654 18.4117 17.3839C18.4117 17.081 18.2021 16.9674 17.6396 16.9674C17.0504 16.9614 16.5645 17.1082 16.3649 17.1737C16.3775 17.0976 16.5319 16.1446 16.5319 16.1446C17.1318 15.9683 17.5276 15.9023 17.973 15.9023C19.0072 15.9023 19.555 16.3665 19.5537 17.244C19.5558 17.4794 19.5167 17.7688 19.4563 18.1506C19.3518 18.8132 19.1274 20.2343 19.0969 20.5801Z" fill="#000066"/>
<path fill-rule="evenodd" clip-rule="evenodd" d="M15.2547 20.5813H14.0502L14.7405 16.2566L13.1999 20.5813H12.3794L12.2779 16.2808L11.5529 20.5813H10.4258L11.3673 14.9551H13.0989L13.2036 18.1043L14.2601 14.9551H16.186L15.2547 20.5813Z" fill="#000066"/>
<path fill-rule="evenodd" clip-rule="evenodd" d="M37.191 18.5412C37.0646 18.5268 37.0096 18.5223 36.923 18.5223C36.2399 18.5223 35.8951 18.7565 35.8951 19.2191C35.8951 19.5039 36.0628 19.685 36.3265 19.685C36.8168 19.685 37.1705 19.218 37.191 18.5412ZM38.0675 20.5801C37.9065 20.5801 37.0697 20.5801 37.0697 20.5801L37.0923 20.106C36.788 20.4804 36.382 20.6592 35.8308 20.6592C35.1775 20.6592 34.7305 20.1498 34.7305 19.4095C34.7305 18.2952 35.5089 17.6454 36.8445 17.6454C36.9812 17.6454 37.1558 17.658 37.3351 17.6807C37.3724 17.5296 37.3821 17.4654 37.3821 17.3839C37.3821 17.081 37.1724 16.9674 36.6099 16.9674C36.0208 16.9614 35.535 17.1082 35.3347 17.1737C35.348 17.0976 35.5028 16.1446 35.5028 16.1446C36.1023 15.9683 36.4984 15.9023 36.9431 15.9023C37.9781 15.9023 38.5251 16.3665 38.5241 17.244C38.5262 17.4794 38.4874 17.7688 38.4266 18.1506C38.3225 18.8132 38.0976 20.2343 38.0675 20.5801Z" fill="#000066"/>
<path fill-rule="evenodd" clip-rule="evenodd" d="M24.4481 20.5111C24.1184 20.6148 23.8616 20.6597 23.5829 20.6597C22.9674 20.6597 22.6314 20.306 22.6314 19.6544C22.6228 19.4521 22.7199 18.9201 22.7963 18.4349C22.8661 18.0074 23.3187 15.3125 23.3187 15.3125H24.5154L24.3757 16.0051H25.0988L24.9356 17.1048H24.21C24.071 17.9748 23.8728 19.0588 23.8705 19.2025C23.8705 19.4385 23.9964 19.5415 24.283 19.5415C24.4202 19.5415 24.5264 19.5275 24.6076 19.4984L24.4481 20.5111Z" fill="#000066"/>
<path fill-rule="evenodd" clip-rule="evenodd" d="M28.1183 20.4735C27.707 20.5992 27.3107 20.6606 26.8902 20.6592C25.5501 20.6574 24.8516 19.958 24.8516 18.6179C24.8516 17.054 25.7401 15.9023 26.9466 15.9023C27.9333 15.9023 28.5638 16.5471 28.5638 17.5578C28.5638 17.8938 28.5207 18.2212 28.4161 18.6833H26.0325C25.952 19.3471 26.3766 19.6236 27.0734 19.6236C27.5012 19.6236 27.8879 19.5352 28.3176 19.3359L28.1183 20.4735ZM27.4455 17.7608C27.4523 17.6653 27.5722 16.944 26.8881 16.944C26.5073 16.944 26.2344 17.2346 26.1238 17.7608H27.4455Z" fill="#000066"/>
<path fill-rule="evenodd" clip-rule="evenodd" d="M19.8192 17.4512C19.8192 18.0295 20.0997 18.4286 20.736 18.7285C21.2235 18.958 21.2994 19.0258 21.2994 19.2335C21.2994 19.5184 21.0841 19.6477 20.6078 19.6477C20.2483 19.6477 19.9142 19.5913 19.5288 19.4667C19.5288 19.4667 19.3708 20.4756 19.3633 20.5238C19.6369 20.5831 19.8809 20.6383 20.6164 20.6592C21.8869 20.6592 22.4738 20.1754 22.4738 19.1298C22.4738 18.5012 22.2284 18.1322 21.625 17.8545C21.1204 17.623 21.062 17.5711 21.062 17.3576C21.062 17.1103 21.2624 16.9839 21.6513 16.9839C21.8878 16.9839 22.2105 17.0091 22.5167 17.0524L22.688 15.9912C22.3763 15.9416 21.9034 15.9023 21.6282 15.9023C20.2813 15.9023 19.8148 16.6058 19.8192 17.4512Z" fill="#000066"/>
<path fill-rule="evenodd" clip-rule="evenodd" d="M33.9736 16.0244C34.308 16.0244 34.6204 16.1114 35.0497 16.3282L35.2469 15.1071C35.0698 15.0377 34.4491 14.6309 33.9233 14.6309C33.1176 14.6309 32.4358 15.0312 31.9571 15.6905C31.258 15.4591 30.9703 15.9268 30.6184 16.393L30.3055 16.466C30.3291 16.3126 30.3507 16.1603 30.3439 16.0058H29.2374C29.0867 17.4223 28.819 18.8566 28.6096 20.2736L28.5547 20.5814H29.7595C29.9605 19.2748 30.0704 18.4385 30.1374 17.872L30.591 17.6206C30.6592 17.368 30.8708 17.2832 31.2964 17.2935C31.2408 17.5918 31.2107 17.9061 31.2107 18.2313C31.2107 19.7284 32.0195 20.6605 33.3152 20.6605C33.6491 20.6605 33.9359 20.6166 34.3799 20.4957L34.5909 19.2136C34.1916 19.4098 33.8647 19.5021 33.5683 19.5021C32.8682 19.5021 32.4445 18.9852 32.4445 18.1314C32.4445 16.8923 33.0742 16.0244 33.9736 16.0244Z" fill="#000066"/>
<path fill-rule="evenodd" clip-rule="evenodd" d="M44.1704 14.9551L43.9027 16.5805C43.574 16.1474 43.2203 15.8336 42.7533 15.8336C42.1458 15.8336 41.5928 16.2943 41.2306 16.9727C40.7263 16.868 40.2052 16.6901 40.2052 16.6901L40.2048 16.6945C40.245 16.3153 40.262 16.0846 40.2579 16.0058H39.1517C39.0015 17.4223 38.7334 18.8565 38.5241 20.2735L38.4688 20.5813H39.6739C39.8365 19.5254 39.9608 18.6475 40.0525 17.9523C40.4644 17.58 40.6706 17.2563 41.0858 17.2773C40.9016 17.7229 40.7941 18.2358 40.7941 18.762C40.7941 19.9054 41.3722 20.6604 42.248 20.6604C42.6894 20.6604 43.028 20.5081 43.3583 20.1554L43.3015 20.581H44.4409L45.3581 14.9551H44.1704ZM42.6645 19.5243C42.2546 19.5243 42.0471 19.2203 42.0471 18.6222C42.0471 17.7228 42.435 17.0853 42.981 17.0853C43.3949 17.0853 43.6193 17.4001 43.6193 17.9814C43.6193 18.8885 43.2249 19.5243 42.6645 19.5243Z" fill="#000066"/>
<path fill-rule="evenodd" clip-rule="evenodd" d="M15.6021 20.2468H14.3981L15.0882 15.9221L13.5479 20.2468H12.727L12.6257 15.9472L11.9005 20.2468H10.7734L11.7149 14.6211H13.4466L13.495 18.1037L14.6635 14.6211H16.5336L15.6021 20.2468Z" fill="white"/>
<path fill-rule="evenodd" clip-rule="evenodd" d="M18.5665 18.208C18.4403 18.1933 18.3846 18.1892 18.2978 18.1892C17.6152 18.1892 17.2699 18.4231 17.2699 18.8853C17.2699 19.1698 17.4385 19.3519 17.7017 19.3519C18.1921 19.3519 18.5457 18.885 18.5665 18.208ZM19.4423 20.2461C19.2819 20.2461 18.4447 20.2461 18.4447 20.2461L18.4675 19.7723C18.1632 20.1466 17.757 20.3255 17.2054 20.3255C16.5528 20.3255 16.1055 19.8154 16.1055 19.0754C16.1055 17.9609 16.8838 17.312 18.2196 17.312C18.3562 17.312 18.5311 17.3244 18.7104 17.3475C18.7476 17.1961 18.7574 17.1318 18.7574 17.0499C18.7574 16.7472 18.5478 16.6345 17.9853 16.6345C17.3959 16.6275 16.9102 16.7742 16.7104 16.8396C16.7232 16.7638 16.8774 15.8108 16.8774 15.8108C17.4775 15.6348 17.8733 15.5684 18.3187 15.5684C19.3527 15.5684 19.9003 16.0331 19.8994 16.9102C19.9014 17.1453 19.8626 17.4361 19.802 17.8168C19.6973 18.4789 19.473 19.9008 19.4423 20.2461Z" fill="white"/>
<path fill-rule="evenodd" clip-rule="evenodd" d="M35.5943 14.7727L35.3971 15.9936C34.9671 15.7774 34.6556 15.69 34.3215 15.69C33.4224 15.69 32.7918 16.5589 32.7918 17.7982C32.7918 18.652 33.2156 19.1679 33.9157 19.1679C34.2123 19.1679 34.5399 19.0762 34.9383 18.8794L34.7268 20.1614C34.2835 20.2822 33.9965 20.3264 33.6628 20.3264C32.3662 20.3264 31.5586 19.3942 31.5586 17.8974C31.5586 15.8861 32.675 14.4805 34.2708 14.4805C34.7967 14.4805 35.4178 14.7033 35.5943 14.7727Z" fill="white"/>
<path fill-rule="evenodd" clip-rule="evenodd" d="M37.5364 18.208C37.4108 18.1933 37.3549 18.1892 37.2683 18.1892C36.5861 18.1892 36.2406 18.4231 36.2406 18.8853C36.2406 19.1698 36.4091 19.3519 36.672 19.3519C37.1623 19.3519 37.5162 18.885 37.5364 18.208ZM38.4128 20.2461C38.2526 20.2461 37.4152 20.2461 37.4152 20.2461L37.4378 19.7723C37.1335 20.1466 36.7274 20.3255 36.1763 20.3255C35.523 20.3255 35.0762 19.8154 35.0762 19.0754C35.0762 17.9609 35.8538 17.312 37.19 17.312C37.3265 17.312 37.5011 17.3244 37.6803 17.3475C37.7176 17.1961 37.7274 17.1318 37.7274 17.0499C37.7274 16.7472 37.5183 16.6345 36.9554 16.6345C36.3667 16.6275 35.8811 16.7742 35.6809 16.8396C35.6935 16.7638 35.848 15.8108 35.848 15.8108C36.448 15.6348 36.8434 15.5684 37.2888 15.5684C38.3229 15.5684 38.871 16.0331 38.8696 16.9102C38.8721 17.1453 38.833 17.4361 38.7723 17.8168C38.668 18.4789 38.4437 19.9008 38.4128 20.2461Z" fill="white"/>
<path fill-rule="evenodd" clip-rule="evenodd" d="M24.7938 20.1767C24.4644 20.2805 24.2073 20.3255 23.9289 20.3255C23.3133 20.3255 22.9771 19.9716 22.9771 19.3208C22.9687 19.1178 23.0659 18.5867 23.1425 18.1009C23.2118 17.6731 23.6646 14.9785 23.6646 14.9785H24.8616L24.7216 15.6709H25.3361L25.1724 16.7703H24.5559C24.4169 17.6412 24.2186 18.7244 24.2162 18.8682C24.2162 19.1048 24.3426 19.2072 24.6288 19.2072C24.7661 19.2072 24.8721 19.1937 24.9536 19.1639L24.7938 20.1767Z" fill="white"/>
<path fill-rule="evenodd" clip-rule="evenodd" d="M28.4641 20.1404C28.0527 20.2665 27.6555 20.3259 27.2355 20.3255C25.8953 20.3247 25.1973 19.6244 25.1973 18.2845C25.1973 16.72 26.0856 15.5684 27.2913 15.5684C28.279 15.5684 28.9092 16.2131 28.9092 17.225C28.9092 17.5603 28.8654 17.8876 28.7619 18.3498H26.378C26.2972 19.0137 26.7223 19.2906 27.4184 19.2906C27.8466 19.2906 28.2331 19.2019 28.6633 19.0021L28.4641 20.1404ZM27.7912 17.427C27.7977 17.3313 27.9181 16.6104 27.2341 16.6104C26.8531 16.6104 26.5801 16.9015 26.4692 17.427H27.7912Z" fill="white"/>
<path fill-rule="evenodd" clip-rule="evenodd" d="M20.1646 17.1172C20.1646 17.6965 20.4454 18.0948 21.0818 18.3951C21.5693 18.6244 21.6449 18.6922 21.6449 18.9001C21.6449 19.1853 21.4298 19.3139 20.9532 19.3139C20.594 19.3139 20.2597 19.2582 19.8741 19.1339C19.8741 19.1339 19.7163 20.1422 19.709 20.1897C19.9824 20.2496 20.2266 20.3043 20.9618 20.3255C22.2326 20.3255 22.8195 19.8419 22.8195 18.7963C22.8195 18.1674 22.5737 17.7986 21.9706 17.5216C21.4657 17.2893 21.4077 17.238 21.4077 17.0241C21.4077 16.7768 21.6079 16.6495 21.9972 16.6495C22.2331 16.6495 22.5562 16.6758 22.8623 16.719L23.0337 15.6579C22.7219 15.6087 22.2493 15.5684 21.9739 15.5684C20.6266 15.5684 20.1605 16.272 20.1646 17.1172Z" fill="white"/>
<path fill-rule="evenodd" clip-rule="evenodd" d="M44.7875 20.2468H43.6485L43.7049 19.821C43.3745 20.1739 43.036 20.3262 42.5946 20.3262C41.7196 20.3262 41.1406 19.5721 41.1406 18.4275C41.1406 16.9056 42.0383 15.6229 43.1 15.6229C43.567 15.6229 43.9205 15.8136 44.2499 16.2469L44.517 14.6211H45.7046L44.7875 20.2468ZM43.011 19.1896C43.5721 19.1896 43.9658 18.5542 43.9658 17.648C43.9658 17.0665 43.7416 16.7507 43.3277 16.7507C42.7815 16.7507 42.3938 17.3884 42.3938 18.2881C42.3938 18.8869 42.6015 19.1896 43.011 19.1896Z" fill="white"/>
<path fill-rule="evenodd" clip-rule="evenodd" d="M39.4972 15.6722C39.3466 17.0883 39.0788 18.5225 38.8693 19.9398L38.8145 20.2474H40.0189C40.4497 17.4494 40.5533 16.9034 41.2292 16.9716C41.3367 16.3989 41.537 15.8974 41.6862 15.6446C41.1819 15.5395 40.9002 15.8245 40.5311 16.3661C40.5605 16.1318 40.6136 15.9044 40.6036 15.6722H39.4972Z" fill="white"/>
<path fill-rule="evenodd" clip-rule="evenodd" d="M29.5856 15.6722C29.4343 17.0883 29.1662 18.5225 28.957 19.9398L28.9023 20.2474H30.1071C30.5381 17.4494 30.6414 16.9034 31.3163 16.9716C31.4244 16.3989 31.6251 15.8974 31.7739 15.6446C31.2702 15.5395 30.9879 15.8245 30.6195 16.3661C30.6486 16.1318 30.702 15.9044 30.6915 15.6722H29.5856Z" fill="white"/>
</g>
<defs>
<clipPath id="clip0_6551_201684">
<rect width="56" height="34" fill="white"/>
</clipPath>
</defs>
</svg>
