<svg width="32" height="61" viewBox="0 0 32 61" fill="none" xmlns="http://www.w3.org/2000/svg">
<path d="M17 36.9297H13L8.54999 39.8897C7.88999 40.3297 7 39.8598 7 39.0598V36.9297C4 36.9297 2 34.9297 2 31.9297V25.9297C2 22.9297 4 20.9297 7 20.9297H17C20 20.9297 22 22.9297 22 25.9297V31.9297C22 34.9297 20 36.9297 17 36.9297Z" stroke="#6500E0" stroke-width="1.5" stroke-miterlimit="10" stroke-linecap="round" stroke-linejoin="round"/>
<path d="M11.9998 29.8594V29.6494C11.9998 28.9694 12.4198 28.6094 12.8398 28.3194C13.2498 28.0394 13.6598 27.6794 13.6598 27.0194C13.6598 26.0994 12.9198 25.3594 11.9998 25.3594C11.0798 25.3594 10.3398 26.0994 10.3398 27.0194" stroke="#6500E0" stroke-width="1.5" stroke-linecap="round" stroke-linejoin="round"/>
<path d="M11.9955 32.25H12.0045" stroke="#6500E0" stroke-width="1.5" stroke-linecap="round" stroke-linejoin="round"/>
</svg>
