<svg width="24" height="24" viewBox="0 0 24 24" fill="none" xmlns="http://www.w3.org/2000/svg">
<path d="M11.4354 22.1725L11.4355 22.1723L11.4227 22.1688C6.44256 20.7966 2.83984 16.1386 2.83984 11.1108V6.72076C2.83984 5.80415 3.52677 4.77646 4.38015 4.42318C4.3804 4.42308 4.38065 4.42298 4.38089 4.42287L9.9483 2.14391C9.94847 2.14384 9.94863 2.14378 9.9488 2.14371C11.2783 1.6029 12.7323 1.60346 14.0503 2.14345L14.0504 2.14351L19.6188 4.42287C19.619 4.42296 19.6192 4.42306 19.6195 4.42315C20.4729 4.77639 21.1599 5.80412 21.1599 6.72076V11.1108C21.1599 16.1278 17.5478 20.7869 12.5759 22.1691L12.5759 22.1689L12.5643 22.1725C12.3887 22.2259 12.1988 22.2508 11.9998 22.2508C11.8009 22.2508 11.611 22.2259 11.4354 22.1725ZM10.1412 2.61776L10.1404 2.61807L4.57045 4.89804L4.57044 4.89803L4.56755 4.89924C4.21162 5.04754 3.91198 5.33925 3.7051 5.64652C3.4984 5.95352 3.33984 6.34214 3.33984 6.73077V11.1208C3.33984 15.943 6.79639 20.3722 11.5517 21.6914C11.8421 21.7773 12.1576 21.7773 12.448 21.6914C17.2033 20.3722 20.6599 15.943 20.6599 11.1208V6.73077C20.6599 6.34214 20.5013 5.95352 20.2946 5.64652C20.0877 5.33925 19.7881 5.04754 19.4321 4.89923L19.4292 4.89804L13.8593 2.61807L13.8585 2.61776C13.2595 2.37371 12.6355 2.25079 11.9998 2.25079C11.3642 2.25079 10.7402 2.37371 10.1412 2.61776Z" fill="#292D32" stroke="#3D3F4B"/>
</svg>
