<svg width="33" height="25" viewBox="0 0 33 25" fill="none" xmlns="http://www.w3.org/2000/svg">
<path d="M9.625 9.125C10.515 9.125 11.385 8.86108 12.1251 8.36662C12.8651 7.87215 13.4419 7.16935 13.7825 6.34708C14.1231 5.52481 14.2122 4.62001 14.0385 3.7471C13.8649 2.87418 13.4363 2.07236 12.807 1.44302C12.1776 0.813685 11.3758 0.385102 10.5029 0.211468C9.62999 0.0378348 8.72519 0.12695 7.90292 0.467544C7.08066 0.808139 6.37785 1.38491 5.88339 2.12494C5.38892 2.86496 5.125 3.73499 5.125 4.625C5.125 5.81848 5.59911 6.96307 6.44302 7.80698C7.28693 8.6509 8.43153 9.125 9.625 9.125ZM9.625 2.375C10.07 2.375 10.505 2.50696 10.875 2.7542C11.245 3.00143 11.5334 3.35283 11.7037 3.76396C11.874 4.1751 11.9186 4.6275 11.8318 5.06396C11.745 5.50041 11.5307 5.90132 11.216 6.21599C10.9013 6.53066 10.5004 6.74495 10.064 6.83177C9.6275 6.91859 9.1751 6.87403 8.76396 6.70373C8.35283 6.53343 8.00143 6.24505 7.75419 5.87504C7.50696 5.50502 7.375 5.07001 7.375 4.625C7.375 4.02827 7.61205 3.45597 8.03401 3.03401C8.45597 2.61205 9.02826 2.375 9.625 2.375ZM23.125 11.375C24.015 11.375 24.885 11.1111 25.6251 10.6166C26.3651 10.1221 26.9419 9.41935 27.2825 8.59708C27.6231 7.77481 27.7122 6.87001 27.5385 5.9971C27.3649 5.12418 26.9363 4.32236 26.307 3.69302C25.6776 3.06369 24.8758 2.6351 24.0029 2.46147C23.13 2.28783 22.2252 2.37695 21.4029 2.71754C20.5807 3.05814 19.8779 3.63492 19.3834 4.37494C18.8889 5.11496 18.625 5.98499 18.625 6.875C18.625 8.06848 19.0991 9.21307 19.943 10.057C20.7869 10.9009 21.9315 11.375 23.125 11.375ZM23.125 4.625C23.57 4.625 24.005 4.75696 24.375 5.0042C24.745 5.25143 25.0334 5.60283 25.2037 6.01397C25.374 6.4251 25.4186 6.8775 25.3318 7.31396C25.245 7.75041 25.0307 8.15132 24.716 8.46599C24.4013 8.78066 24.0004 8.99495 23.564 9.08177C23.1275 9.16859 22.6751 9.12403 22.264 8.95373C21.8528 8.78344 21.5014 8.49505 21.2542 8.12504C21.007 7.75503 20.875 7.32001 20.875 6.875C20.875 6.27827 21.1121 5.70597 21.534 5.28401C21.956 4.86206 22.5283 4.625 23.125 4.625ZM23.125 13.625C21.0035 13.6287 18.9515 14.3818 17.3313 15.7513C16.3166 14.0694 14.7796 12.7656 12.9547 12.0389C11.1299 11.3122 9.11738 11.2024 7.2243 11.7263C5.33123 12.2503 3.66154 13.3791 2.47001 14.9407C1.27847 16.5023 0.63051 18.4108 0.625 20.375V23.75C0.625 24.0484 0.743526 24.3345 0.954505 24.5455C1.16548 24.7565 1.45163 24.875 1.75 24.875H31C31.2984 24.875 31.5845 24.7565 31.7955 24.5455C32.0065 24.3345 32.125 24.0484 32.125 23.75V22.625C32.125 20.2381 31.1768 17.9489 29.489 16.261C27.8011 14.5732 25.5119 13.625 23.125 13.625ZM2.875 20.375C2.87879 18.7917 3.439 17.2602 4.45768 16.0482C5.47637 14.8361 6.88869 14.0207 8.44769 13.7446C10.0067 13.4685 11.6132 13.7491 12.9862 14.5375C14.3592 15.3259 15.4114 16.5719 15.9588 18.0575C16.0927 18.4229 16.1943 18.7994 16.2625 19.1825C16.2625 19.1825 16.2625 19.1825 16.2625 19.25C16.3335 19.6209 16.3711 19.9974 16.375 20.375V22.625H2.875V20.375ZM18.625 22.625V20.375C18.6211 19.9988 18.5948 19.6231 18.5463 19.25V19.025C18.4928 18.672 18.4177 18.3225 18.3212 17.9788C19.256 17.0316 20.4498 16.3818 21.7527 16.1112C23.0556 15.8405 24.4095 15.961 25.6441 16.4575C26.8788 16.954 27.9391 17.8043 28.6919 18.9017C29.4446 19.999 29.8563 21.2944 29.875 22.625H18.625Z" fill="#6500E0"/>
</svg>
