<svg width="36" height="35" viewBox="0 0 36 35" fill="none" xmlns="http://www.w3.org/2000/svg">
<path fill-rule="evenodd" clip-rule="evenodd" d="M35.125 17.75C35.125 8.2235 27.4015 0.5 17.875 0.5C8.3485 0.5 0.625 8.2235 0.625 17.75C0.625 27.2765 8.3485 35 17.875 35C27.4015 35 35.125 27.2765 35.125 17.75ZM2.125 17.75C2.125 9.0515 9.1765 2 17.875 2C26.5735 2 33.625 9.0515 33.625 17.75C33.625 26.4485 26.5735 33.5 17.875 33.5C9.1765 33.5 2.125 26.4485 2.125 17.75Z" fill="#6500E0"/>
<path fill-rule="evenodd" clip-rule="evenodd" d="M17.8762 10.0742L10.5742 15.3782L13.3642 23.9627H22.3882L25.1782 15.3782L17.8762 10.0742ZM17.8762 11.9162L23.4262 15.9482L21.3067 22.4732H14.4457L12.3262 15.9482L17.8762 11.9162Z" fill="#6500E0"/>
<path fill-rule="evenodd" clip-rule="evenodd" d="M17.1289 11.75H18.6289V5.75H17.1289V11.75ZM23.3539 15.182L23.8174 16.6085L29.5234 14.7545L29.0584 13.3295L23.3539 15.182ZM22.0129 22.163L20.7979 23.045L24.3259 27.899L25.5394 27.017L22.0129 22.163ZM14.9584 23.045L13.7449 22.163L10.2199 27.017L11.4319 27.899L14.9584 23.045ZM11.9404 16.61L12.4054 15.182L6.69788 13.328L6.23438 14.7545L11.9404 16.61Z" fill="#6500E0"/>
<path fill-rule="evenodd" clip-rule="evenodd" d="M17.8741 6.65044L23.4136 2.95894L22.5826 1.71094L17.8726 4.84744L13.1641 1.71094L12.3331 2.95894L17.8741 6.65044ZM28.4296 14.3214L33.6541 18.4479L34.5841 17.2719L30.1441 13.7619L31.6741 8.31694L30.2296 7.91194L28.4296 14.3214ZM24.3976 26.7294L22.0876 32.9739L23.4931 33.4944L25.4596 28.1874L31.1116 27.9594L31.0516 26.4609L24.3976 26.7294ZM11.3506 26.7294L4.69806 26.4609L4.63806 27.9609L10.2916 28.1904L12.2551 33.4944L13.6621 32.9739L11.3506 26.7294ZM7.31856 14.3214L5.51856 7.91044L4.07406 8.31544L5.60256 13.7649L1.16406 17.2719L2.09406 18.4479L7.31856 14.3214Z" fill="#6500E0"/>
</svg>
