<svg width="16" height="17" viewBox="0 0 16 17" fill="none" xmlns="http://www.w3.org/2000/svg">
<path d="M5.58594 8.5606L7.1926 10.1739L10.4126 6.94727" stroke="#6500E0" stroke-linecap="round" stroke-linejoin="round"/>
<path d="M7.16594 2.19344C7.62594 1.8001 8.37927 1.8001 8.84594 2.19344L9.89927 3.1001C10.0993 3.27344 10.4726 3.41344 10.7393 3.41344H11.8726C12.5793 3.41344 13.1593 3.99344 13.1593 4.7001V5.83344C13.1593 6.09344 13.2993 6.47344 13.4726 6.67344L14.3793 7.72677C14.7726 8.18677 14.7726 8.9401 14.3793 9.40677L13.4726 10.4601C13.2993 10.6601 13.1593 11.0334 13.1593 11.3001V12.4334C13.1593 13.1401 12.5793 13.7201 11.8726 13.7201H10.7393C10.4793 13.7201 10.0993 13.8601 9.89927 14.0334L8.84594 14.9401C8.38594 15.3334 7.6326 15.3334 7.16594 14.9401L6.1126 14.0334C5.9126 13.8601 5.53927 13.7201 5.2726 13.7201H4.11927C3.4126 13.7201 2.8326 13.1401 2.8326 12.4334V11.2934C2.8326 11.0334 2.6926 10.6601 2.52594 10.4601L1.62594 9.4001C1.23927 8.9401 1.23927 8.19344 1.62594 7.73344L2.52594 6.67344C2.6926 6.47344 2.8326 6.1001 2.8326 5.8401V4.69344C2.8326 3.98677 3.4126 3.40677 4.11927 3.40677H5.2726C5.5326 3.40677 5.9126 3.26677 6.1126 3.09344L7.16594 2.19344Z" stroke="#6500E0" stroke-linecap="round" stroke-linejoin="round"/>
</svg>
