<svg width="12" height="13" viewBox="0 0 12 13" fill="none" xmlns="http://www.w3.org/2000/svg">
<path d="M5.9975 7.5857C4.9325 7.5857 4.0625 6.7207 4.0625 5.6507C4.0625 4.5807 4.9325 3.7207 5.9975 3.7207C7.0625 3.7207 7.9325 4.5857 7.9325 5.6557C7.9325 6.7257 7.0625 7.5857 5.9975 7.5857ZM5.9975 4.4707C5.3475 4.4707 4.8125 5.0007 4.8125 5.6557C4.8125 6.3107 5.3425 6.8407 5.9975 6.8407C6.6525 6.8407 7.1825 6.3107 7.1825 5.6557C7.1825 5.0007 6.6475 4.4707 5.9975 4.4707Z" fill="#999BAD"/>
<path d="M6.00082 11.88C5.26082 11.88 4.51582 11.6 3.93582 11.045C2.46082 9.625 0.830821 7.36 1.44582 4.665C2.00082 2.22 4.13582 1.125 6.00082 1.125C6.00082 1.125 6.00082 1.125 6.00582 1.125C7.87082 1.125 10.0058 2.22 10.5608 4.67C11.1708 7.365 9.54082 9.625 8.06582 11.045C7.48582 11.6 6.74082 11.88 6.00082 11.88ZM6.00082 1.875C4.54582 1.875 2.67582 2.65 2.18082 4.83C1.64082 7.185 3.12082 9.215 4.46082 10.5C5.32582 11.335 6.68082 11.335 7.54582 10.5C8.88082 9.215 10.3608 7.185 9.83082 4.83C9.33082 2.65 7.45582 1.875 6.00082 1.875Z" fill="#999BAD"/>
</svg>
