<svg width="64" height="60" viewBox="0 0 64 60" fill="none" xmlns="http://www.w3.org/2000/svg">
<g clip-path="url(#clip0_6551_232392)">
<rect y="13" width="56.8384" height="34.103" rx="6" fill="#26337A"/>
<path fill-rule="evenodd" clip-rule="evenodd" d="M23.582 35.4781L25.3297 24.6367H28.1232L26.3757 35.4781H23.582Z" fill="#FFFFFE"/>
<path fill-rule="evenodd" clip-rule="evenodd" d="M36.5073 24.9021C35.955 24.6845 35.0863 24.4473 34.0041 24.4473C31.2422 24.4473 29.2981 25.9185 29.2819 28.0252C29.2644 29.5835 30.6693 30.4526 31.7284 30.9705C32.817 31.5015 33.1827 31.8412 33.1784 32.3159C33.1709 33.042 32.3095 33.3747 31.5063 33.3747C30.3879 33.3747 29.7937 33.2109 28.875 32.8062L28.5157 32.6336L28.125 35.0603C28.7764 35.3623 29.984 35.6244 31.2373 35.6382C34.1725 35.6382 36.0798 34.1847 36.1021 31.935C36.1122 30.6993 35.3678 29.7627 33.7557 28.9894C32.7794 28.4866 32.1803 28.1536 32.1871 27.6448C32.1878 27.1942 32.6933 26.7118 33.7875 26.7118C34.7012 26.6971 35.3627 26.9081 35.8781 27.1284L36.129 27.2524L36.5073 24.9021Z" fill="#FFFFFE"/>
<path fill-rule="evenodd" clip-rule="evenodd" d="M40.2277 31.6351C40.4592 31.012 41.3405 28.6048 41.3405 28.6048C41.3242 28.6334 41.5707 27.9768 41.7118 27.5705L41.9004 28.5055C41.9004 28.5055 42.4364 31.0932 42.5468 31.6351C42.1119 31.6351 40.7731 31.6351 40.2277 31.6351ZM43.674 24.6484H41.5151C40.8455 24.6484 40.3443 24.8402 40.0509 25.5471L35.9023 35.4826H38.8365C38.8365 35.4826 39.3152 34.146 39.4238 33.8527C39.7438 33.8527 42.5949 33.8583 43.0018 33.8583C43.0856 34.2367 43.342 35.4826 43.342 35.4826H45.9348L43.674 24.6484Z" fill="#FFFFFE"/>
<path fill-rule="evenodd" clip-rule="evenodd" d="M21.2367 24.6465L18.5025 32.0377L18.2096 30.5353C17.7001 28.8042 16.114 26.9279 14.3398 25.9877L16.8413 35.4693L19.7978 35.4675L24.1971 24.6465H21.2367Z" fill="#FFFFFE"/>
<path fill-rule="evenodd" clip-rule="evenodd" d="M15.9677 24.6387H11.4628L11.4258 24.8633C14.9311 25.7613 17.2504 27.9291 18.2131 30.5348L17.2341 25.5534C17.0652 24.8663 16.5744 24.6627 15.9677 24.6387Z" fill="#EC982D"/>
</g>
<defs>
<clipPath id="clip0_6551_232392">
<rect width="56" height="34" fill="white" transform="translate(0 13)"/>
</clipPath>
</defs>
</svg>
